<svg width="74" height="74" viewBox="0 0 74 74" fill="none" xmlns="http://www.w3.org/2000/svg">
<path d="M34.6875 39.3125H23.125C22.5117 39.3125 21.9235 39.0689 21.4898 38.6352C21.0561 38.2015 20.8125 37.6133 20.8125 37C20.8125 36.3867 21.0561 35.7985 21.4898 35.3648C21.9235 34.9311 22.5117 34.6875 23.125 34.6875H34.6875V23.125C34.6875 22.5117 34.9311 21.9235 35.3648 21.4898C35.7985 21.0561 36.3867 20.8125 37 20.8125C37.6133 20.8125 38.2015 21.0561 38.6352 21.4898C39.0689 21.9235 39.3125 22.5117 39.3125 23.125V34.6875C39.3125 35.9141 38.8252 37.0905 37.9579 37.9579C37.0905 38.8252 35.9141 39.3125 34.6875 39.3125Z" fill="white"/>
<path d="M64.7498 37C64.7472 33.0413 63.8906 29.1297 62.2384 25.5323C63.6429 24.5236 64.8027 23.212 65.6318 21.6945C66.461 20.1771 66.9384 18.4927 67.0287 16.7658C67.119 15.039 66.8199 13.3139 66.1535 11.7183C65.4871 10.1226 64.4705 8.69725 63.1788 7.54755C61.8872 6.39785 60.3536 5.55326 58.6915 5.07627C57.0294 4.59928 55.2813 4.50209 53.5765 4.79189C51.8718 5.0817 50.254 5.75108 48.8429 6.75052C47.4317 7.74995 46.2634 9.05387 45.4242 10.5658C39.9449 8.81145 34.0546 8.81145 28.5753 10.5658C27.7377 9.05025 26.5697 7.74265 25.1579 6.73993C23.7462 5.7372 22.1268 5.06507 20.42 4.77334C18.7131 4.48161 16.9624 4.57777 15.2978 5.05469C13.6331 5.5316 12.0971 6.37706 10.8037 7.52837C9.51022 8.67969 8.49247 10.1073 7.82585 11.7055C7.15923 13.3037 6.86085 15.0314 6.95281 16.7606C7.04477 18.4898 7.52472 20.1761 8.35709 21.6946C9.18945 23.213 10.3529 24.5247 11.7612 25.5323C9.32322 30.8429 8.63661 36.791 9.8005 42.5173C10.9644 48.2437 13.9185 53.4518 18.2362 57.3893L12.0248 65.675C11.8426 65.9179 11.71 66.1944 11.6346 66.4886C11.5593 66.7828 11.5426 67.0889 11.5855 67.3895C11.6285 67.6902 11.7302 67.9794 11.8849 68.2407C12.0397 68.502 12.2443 68.7303 12.4873 68.9125C12.7302 69.0947 13.0067 69.2273 13.3009 69.3026C13.595 69.378 13.9012 69.3947 14.2018 69.3518C14.5024 69.3088 14.7917 69.2071 15.053 69.0523C15.3143 68.8976 15.5426 68.6929 15.7248 68.45L21.8853 60.2406C26.378 63.1828 31.6317 64.75 37.0021 64.75C42.3725 64.75 47.6262 63.1828 52.1189 60.2406L58.2748 68.45C58.457 68.6929 58.6853 68.8976 58.9466 69.0523C59.2079 69.2071 59.4971 69.3088 59.7977 69.3518C60.0984 69.3947 60.4045 69.378 60.6987 69.3026C60.9929 69.2273 61.2693 69.0947 61.5123 68.9125C61.7552 68.7303 61.9599 68.502 62.1146 68.2407C62.2694 67.9794 62.3711 67.6902 62.414 67.3895C62.457 67.0889 62.4403 66.7828 62.3649 66.4886C62.2896 66.1944 62.157 65.9179 61.9748 65.675L55.7611 57.3893C58.5919 54.8003 60.8529 51.6505 62.4004 48.1403C63.9479 44.63 64.748 40.8362 64.7498 37ZM55.4998 9.24999C56.9172 9.25389 58.2995 9.69188 59.4605 10.505C60.6216 11.3182 61.5057 12.4675 61.9938 13.7982C62.482 15.129 62.5508 16.5773 62.191 17.9484C61.8312 19.3194 61.0601 20.5474 59.9814 21.4669C57.3739 17.6301 53.8514 14.5035 49.7324 12.3696C50.3645 11.4168 51.2211 10.634 52.2268 10.09C53.2325 9.54605 54.3564 9.25758 55.4998 9.24999ZM11.5623 16.1875C11.5588 14.6968 12.0368 13.2449 12.9249 12.0477C13.8131 10.8505 15.064 9.97202 16.4917 9.54301C17.9193 9.114 19.4472 9.15736 20.8482 9.66665C22.2492 10.1759 23.4483 11.1239 24.2672 12.3696C20.1481 14.5035 16.6257 17.6301 14.0182 21.4669C13.2483 20.8195 12.6295 20.0114 12.2052 19.0993C11.781 18.1873 11.5615 17.1934 11.5623 16.1875ZM13.8748 37C13.8748 32.4263 15.231 27.9553 17.772 24.1524C20.3131 20.3495 23.9247 17.3856 28.1502 15.6353C32.3758 13.885 37.0254 13.427 41.5112 14.3193C45.9971 15.2116 50.1175 17.4141 53.3516 20.6481C56.5857 23.8822 58.7882 28.0027 59.6805 32.4885C60.5727 36.9743 60.1148 41.624 58.3645 45.8495C56.6142 50.0751 53.6502 53.6867 49.8473 56.2277C46.0445 58.7687 41.5735 60.125 36.9998 60.125C30.8687 60.1183 24.9907 57.6797 20.6554 53.3444C16.3201 49.0091 13.8815 43.1311 13.8748 37Z" fill="white"/>
</svg>
