<svg width="77" height="77" viewBox="0 0 77 77" fill="none" xmlns="http://www.w3.org/2000/svg">
<path d="M66.9896 18.48H19.2496C15.8616 18.48 13.0896 21.252 13.0896 24.64V26.95C13.0896 27.797 13.7826 28.49 14.6296 28.49C15.4766 28.49 16.1696 27.797 16.1696 26.95V24.64C16.1696 24.332 16.2466 24.024 16.3236 23.716L33.5716 38.5L16.3236 53.284C16.2466 52.976 16.1696 52.668 16.1696 52.36V50.05C16.1696 49.203 15.4766 48.51 14.6296 48.51C13.7826 48.51 13.0896 49.203 13.0896 50.05V52.36C13.0896 55.748 15.8616 58.52 19.2496 58.52H66.9896C70.3776 58.52 73.1496 55.748 73.1496 52.36V24.64C73.1496 21.252 70.3776 18.48 66.9896 18.48ZM18.6336 21.637C18.7876 21.56 19.0186 21.56 19.2496 21.56H66.9896C67.2206 21.56 67.4516 21.56 67.6056 21.637L44.1206 41.734C43.5046 42.196 42.7346 42.196 42.1186 41.734L18.6336 21.637ZM66.9896 55.44H19.2496C19.0186 55.44 18.7876 55.44 18.6336 55.363L35.9586 40.502L40.1166 44.121C40.9636 44.891 42.0416 45.276 43.1196 45.276C44.1976 45.276 45.2756 44.891 46.1226 44.121L50.2806 40.502L67.6056 55.363C67.4516 55.44 67.2206 55.44 66.9896 55.44ZM70.0696 52.36C70.0696 52.668 69.9926 52.976 69.9156 53.284L52.6676 38.5L69.9156 23.716C69.9926 24.024 70.0696 24.332 70.0696 24.64V52.36ZM8.46961 34.65C8.46961 33.803 9.16261 33.11 10.0096 33.11H19.2496C20.0966 33.11 20.7896 33.803 20.7896 34.65C20.7896 35.497 20.0966 36.19 19.2496 36.19H10.0096C9.16261 36.19 8.46961 35.497 8.46961 34.65ZM19.2496 43.89H5.38961C4.54261 43.89 3.84961 43.197 3.84961 42.35C3.84961 41.503 4.54261 40.81 5.38961 40.81H19.2496C20.0966 40.81 20.7896 41.503 20.7896 42.35C20.7896 43.197 20.0966 43.89 19.2496 43.89Z" fill="white"/>
</svg>
