<svg width="63" height="63" viewBox="0 0 63 63" fill="none" xmlns="http://www.w3.org/2000/svg">
<path d="M23.1445 21.2256C23.1445 25.8471 26.9042 29.6067 31.5252 29.6067C36.1466 29.6067 39.9063 25.8471 39.9063 21.2256C39.9063 16.6046 36.1466 12.8449 31.5252 12.8449C26.9042 12.8449 23.1445 16.6046 23.1445 21.2256ZM37.416 21.2256C37.416 24.4738 34.7734 27.1165 31.5252 27.1165C28.2769 27.1165 25.6343 24.4738 25.6343 21.2256C25.6343 17.9773 28.2769 15.3347 31.5252 15.3347C34.7734 15.3347 37.416 17.9773 37.416 21.2256Z" fill="white"/>
<path d="M53.832 48.6002C50.8842 47.4971 46.9097 46.591 42.4882 46.0061C42.7833 45.6018 43.0832 45.1866 43.3884 44.7602C47.4576 39.0722 51.0505 33.3092 51.0866 33.2515C51.1068 33.2188 51.1255 33.1847 51.1428 33.1501C52.5276 30.3796 54.1781 26.309 54.1781 22.6531C54.1781 20.1739 53.7388 17.7091 52.8727 15.3265C52.6376 14.6801 51.9229 14.347 51.2769 14.582C50.6309 14.8171 50.2973 15.5313 50.5324 16.1773C51.2995 18.2864 51.6883 20.4652 51.6883 22.6531C51.6883 25.9624 49.9801 29.8985 48.9419 31.985C48.5862 32.5531 45.2077 37.935 41.3966 43.2654C33.8163 53.8676 31.737 54.2271 31.5269 54.2334C31.3154 54.2252 29.2409 53.8474 21.6625 43.2572C17.8519 37.933 14.4671 32.555 14.1091 31.984C13.0708 29.898 11.3626 25.9619 11.3626 22.6531C11.3626 11.912 20.7843 2.49026 31.5255 2.49026C36.5829 2.49026 41.6802 4.65127 45.5105 8.41958C46.0003 8.90167 46.7886 8.89542 47.2711 8.40516C47.7532 7.91537 47.747 7.12711 47.2567 6.64453C42.9645 2.422 37.2308 0 31.5255 0C25.75 0 19.9658 2.47199 15.6553 6.78248C11.3448 11.093 8.87283 16.8776 8.87283 22.6526C8.87283 26.3085 10.5234 30.3791 11.9077 33.1501C11.9255 33.1852 11.9447 33.2193 11.9653 33.2525C12.0014 33.3101 15.6024 39.0732 19.6764 44.7607C19.9557 45.1505 20.2302 45.5307 20.5012 45.9023C15.974 46.4545 12.0581 47.336 9.08288 48.4795C5.09731 50.0118 3.07617 51.9128 3.07617 54.1296C3.07617 56.8135 6.14561 59.0923 11.9533 60.7203C17.1977 62.1906 24.1484 63 31.5255 63C38.902 63 45.8532 62.1906 51.0976 60.7203C56.9049 59.0923 59.9748 56.8135 59.9748 54.1296C59.9748 51.9854 57.908 50.1248 53.832 48.6002ZM50.4257 58.3228C45.3937 59.733 38.6814 60.5097 31.5255 60.5097C24.3695 60.5097 17.6572 59.733 12.6253 58.3228C7.41502 56.8626 5.56643 55.1514 5.56643 54.1296C5.56643 52.3632 10.7416 49.399 22.2239 48.2137C23.5914 50.0056 24.8305 51.5196 25.9259 52.7357C28.4104 55.4932 30.1374 56.7232 31.5255 56.7232C32.9218 56.7232 34.6536 55.4937 37.14 52.7362C38.2181 51.5408 39.4341 50.0565 40.7737 48.3041C52.17 49.5999 57.4845 52.53 57.4845 54.1296C57.4845 55.1514 55.6359 56.8626 50.4257 58.3228Z" fill="white"/>
<path d="M23.4262 56.0954C20.7192 55.9652 18.1146 55.3096 15.8858 54.7049C15.2215 54.5251 14.538 54.9174 14.3583 55.5807C14.178 56.2444 14.5702 56.9284 15.234 57.1082C17.5892 57.747 20.3496 58.4405 23.3066 58.5828C23.3272 58.5838 23.3474 58.5842 23.3676 58.5842C24.0275 58.5842 24.5779 58.0651 24.6101 57.399C24.6433 56.7121 24.1131 56.1286 23.4262 56.0954Z" fill="white"/>
<path d="M11.8556 53.6167C11.5461 53.0029 10.7977 52.7559 10.1835 53.0659C9.56967 53.3754 9.3231 54.1238 9.63263 54.7381L9.65042 54.7736C9.8696 55.2082 10.308 55.4586 10.7631 55.4586C10.9515 55.4586 11.1428 55.4153 11.3226 55.325C11.9369 55.0154 12.1835 54.2666 11.8739 53.6528L11.8556 53.6167Z" fill="white"/>
<path d="M48.3218 12.0658C48.5405 12.5003 48.9793 12.7507 49.4345 12.7507C49.6229 12.7507 49.8142 12.708 49.994 12.6171C50.6078 12.3076 50.8548 11.5587 50.5453 10.9449L50.527 10.9094C50.2175 10.2951 49.4686 10.0485 48.8548 10.3581C48.2406 10.6676 47.994 11.4165 48.3035 12.0302L48.3218 12.0658Z" fill="white"/>
</svg>
