<svg width="53" height="53" viewBox="0 0 53 53" fill="none" xmlns="http://www.w3.org/2000/svg">
<g clip-path="url(#clip0_297_165)">
<path d="M50.2568 34.8265L41.9012 30.0027C40.6424 29.278 39.1475 29.0821 37.7445 29.458C36.3415 29.834 35.1448 30.751 34.417 32.0081C33.9823 32.7613 33.2194 33.7093 32.0547 33.9474C31.5602 34.0608 31.0466 34.062 30.5517 33.9508C30.0567 33.8396 29.5929 33.6189 29.1945 33.3049C26.0502 30.9447 22.0552 26.9504 19.6954 23.8058C19.3813 23.4074 19.1606 22.9436 19.0494 22.4486C18.9382 21.9536 18.9394 21.44 19.0528 20.9456C19.2909 19.7809 20.2389 19.0181 20.9923 18.5831C22.2494 17.8554 23.1666 16.6588 23.5425 15.2557C23.9184 13.8526 23.7225 12.3577 22.9976 11.0989L18.1732 2.74285C17.5222 1.60195 16.4809 0.734739 15.2411 0.301024C14.0012 -0.132691 12.6464 -0.103687 11.4262 0.382693L11.325 0.422443C7.33921 1.98719 4.42608 3.18714 3.22716 4.38606C1.22837 6.38484 0.147256 8.95244 0.0138248 12.0178C-0.101181 14.6589 0.501798 17.634 1.80589 20.8602C4.12464 26.5959 8.5697 32.9232 14.3232 38.6767C20.0767 44.4302 26.4041 48.8756 32.1398 51.1941C35.1075 52.3934 37.8626 52.9997 40.3407 52.9997C40.5565 52.9997 40.7704 52.9951 40.9825 52.9858C44.0476 52.8524 46.6152 51.7713 48.614 49.7725C49.8125 48.5736 51.0125 45.6604 52.5773 41.6751L52.6171 41.5738C53.1035 40.3536 53.1326 38.9987 52.6988 37.7587C52.2651 36.5188 51.3978 35.4774 50.2568 34.8265ZM48.7627 40.0602L48.723 40.1616C47.9636 42.0961 46.3835 46.1213 45.6857 46.8446C42.5317 49.9987 37.4223 48.8632 33.6915 47.3549C28.5352 45.2706 22.5429 41.0404 17.251 35.7486C11.9592 30.4568 7.72905 24.4645 5.64476 19.3081C4.13665 15.5772 3.00108 10.4679 6.15385 7.31493C6.87846 6.6163 10.9036 5.03603 12.8381 4.27664L12.9394 4.23689C13.1001 4.17303 13.2714 4.13998 13.4444 4.13948C13.6775 4.14018 13.9063 4.20297 14.1072 4.32141C14.3081 4.43985 14.4738 4.60966 14.5873 4.81337L19.4111 13.169C19.5881 13.4765 19.636 13.8416 19.5442 14.1842C19.4524 14.5269 19.2284 14.8192 18.9214 14.9969C16.8163 16.2123 15.422 18.0299 14.9955 20.1158C14.7639 21.184 14.768 22.2899 15.0076 23.3563C15.2472 24.4228 15.7164 25.4242 16.3826 26.2907C18.9892 29.7642 23.2354 34.0102 26.7082 36.6164C27.5748 37.2826 28.5762 37.7519 29.6426 37.9914C30.7091 38.231 31.815 38.2351 32.8832 38.0035C34.9689 37.577 36.7867 36.1827 38.0021 34.0776C38.1808 33.7717 38.4731 33.5486 38.8153 33.4569C39.1576 33.3652 39.5222 33.4123 39.83 33.5879L48.1857 38.4117C48.467 38.5682 48.6812 38.8225 48.7875 39.1263C48.8939 39.4301 48.8851 39.7625 48.7627 40.0602ZM27.3209 2.17351C27.3209 1.62443 27.5391 1.09784 27.9273 0.709582C28.3156 0.321323 28.8422 0.103201 29.3912 0.103201C35.6252 0.103201 41.6039 2.57963 46.0119 6.98771C50.42 11.3958 52.8964 17.3744 52.8964 23.6084C52.8964 24.1575 52.6783 24.6841 52.2901 25.0723C51.9018 25.4606 51.3752 25.6787 50.8261 25.6787C50.277 25.6787 49.7505 25.4606 49.3622 25.0723C48.9739 24.6841 48.7558 24.1575 48.7558 23.6084C48.7558 21.0654 48.255 18.5473 47.2818 16.1979C46.3086 13.8485 44.8823 11.7137 43.0841 9.91555C41.2859 8.11738 39.1512 6.69099 36.8018 5.71784C34.4523 4.74468 31.9342 4.24381 29.3912 4.24383C28.8422 4.24383 28.3156 4.0257 27.9273 3.63745C27.5391 3.24919 27.3209 2.72259 27.3209 2.17351ZM27.3209 18.9486C27.3209 18.3996 27.5391 17.873 27.9273 17.4847C28.3156 17.0964 28.8422 16.8783 29.3912 16.8783C31.1762 16.8783 32.888 17.5874 34.1501 18.8495C35.4123 20.1116 36.1213 21.8235 36.1213 23.6084C36.1213 24.1575 35.9032 24.6841 35.5149 25.0723C35.1267 25.4606 34.6001 25.6787 34.051 25.6787C33.5019 25.6787 32.9753 25.4606 32.5871 25.0723C32.1988 24.6841 31.9807 24.1575 31.9807 23.6084C31.9807 22.9216 31.7078 22.263 31.2222 21.7774C30.7366 21.2918 30.078 21.019 29.3912 21.0189C29.1194 21.0189 28.8502 20.9654 28.599 20.8614C28.3478 20.7573 28.1196 20.6048 27.9273 20.4126C27.7351 20.2203 27.5826 19.9921 27.4785 19.7409C27.3745 19.4897 27.3209 19.2205 27.3209 18.9486ZM27.3209 10.5612C27.3209 10.0121 27.5391 9.48551 27.9273 9.09725C28.3156 8.70899 28.8422 8.49087 29.3912 8.49087C33.4007 8.49092 37.2459 10.0837 40.081 12.9187C42.9161 15.7538 44.5089 19.599 44.509 23.6084C44.509 24.1575 44.2909 24.6841 43.9026 25.0723C43.5143 25.4606 42.9878 25.6787 42.4387 25.6787C41.8896 25.6787 41.363 25.4606 40.9747 25.0723C40.5865 24.6841 40.3684 24.1575 40.3684 23.6084C40.3683 20.6971 39.2117 17.9051 37.1531 15.8465C35.0945 13.788 32.3025 12.6314 29.3912 12.6314C28.8422 12.6314 28.3156 12.4133 27.9274 12.025C27.5391 11.6368 27.321 11.1102 27.3209 10.5612Z" fill="white"/>
</g>
<defs>
<clipPath id="clip0_297_165">
<rect width="53" height="53" fill="white"/>
</clipPath>
</defs>
</svg>
